HIERARCHY
ROOT Hips
{
	OFFSET -0.001795 -0.223333 0.028219
	CHANNELS 6 Xposition Yposition Zposition Zrotation Yrotation Xrotation 
	JOINT LeftUpLeg
	{
		OFFSET 0.069520 -0.091406 -0.006815
		CHANNELS 3 Zrotation Yrotation Xrotation
		JOINT LeftLeg
		{
			OFFSET 0.034277 -0.375199 -0.004496
			CHANNELS 3 Zrotation Yrotation Xrotation
			JOINT LeftFoot
			{
				OFFSET -0.013596 -0.397961 -0.043693
				CHANNELS 3 Zrotation Yrotation Xrotation
				JOINT LeftToe
				{
					OFFSET 0.026358 -0.055791 0.119288
					CHANNELS 3 Zrotation Yrotation Xrotation
					End Site
					{
						OFFSET 0.000000 0.000000 0.000000
					}
				}
			}
		}
	}
	JOINT RightUpLeg
	{
		OFFSET -0.067670 -0.090522 -0.004320
		CHANNELS 3 Zrotation Yrotation Xrotation
		JOINT RightLeg
		{
			OFFSET -0.038290 -0.382569 -0.008850
			CHANNELS 3 Zrotation Yrotation Xrotation
			JOINT RightFoot
			{
				OFFSET 0.015774 -0.398415 -0.042312
				CHANNELS 3 Zrotation Yrotation Xrotation
				JOINT RightToe
				{
					OFFSET -0.025372 -0.048144 0.123348
					CHANNELS 3 Zrotation Yrotation Xrotation
					End Site
					{
						OFFSET 0.000000 0.000000 0.000000
					}
				}
			}
		}
	}
	JOINT Spine
	{
		OFFSET -0.002533 0.108963 -0.026696
		CHANNELS 3 Zrotation Yrotation Xrotation
		JOINT Spine1
		{
			OFFSET 0.005487 0.135180 0.001092
			CHANNELS 3 Zrotation Yrotation Xrotation
			JOINT Spine2
			{
				OFFSET 0.001457 0.052922 0.025425
				CHANNELS 3 Zrotation Yrotation Xrotation
				JOINT Neck
				{
					OFFSET -0.002778 0.213870 -0.042857
					CHANNELS 3 Zrotation Yrotation Xrotation
					JOINT Head
					{
						OFFSET 0.005152 0.064970 0.051349
						CHANNELS 3 Zrotation Yrotation Xrotation
						End Site
						{
							OFFSET 0.000000 0.000000 0.000000
						}
					}
				}
				JOINT LeftShoulder
				{
					OFFSET 0.078845 0.121749 -0.034090
					CHANNELS 3 Zrotation Yrotation Xrotation
					JOINT LeftArm
					{
						OFFSET 0.090977 0.030469 -0.008868
						CHANNELS 3 Zrotation Yrotation Xrotation
						JOINT LeftForeArm
						{
							OFFSET 0.259612 -0.012772 -0.027456
							CHANNELS 3 Zrotation Yrotation Xrotation
							JOINT LeftHand
							{
								OFFSET 0.249234 0.008986 -0.001171
								CHANNELS 3 Zrotation Yrotation Xrotation
								End Site
								{
									OFFSET 0.000000 0.000000 0.000000
								}
							}
						}
					}
				}
				JOINT RightShoulder
				{
					OFFSET -0.081759 0.118833 -0.038615
					CHANNELS 3 Zrotation Yrotation Xrotation
					JOINT RightArm
					{
						OFFSET -0.096012 0.032551 -0.009143
						CHANNELS 3 Zrotation Yrotation Xrotation
						JOINT RightForeArm
						{
							OFFSET -0.253742 -0.013329 -0.021401
							CHANNELS 3 Zrotation Yrotation Xrotation
							JOINT RightHand
							{
								OFFSET -0.255298 0.007772 -0.005559
								CHANNELS 3 Zrotation Yrotation Xrotation
								End Site
								{
									OFFSET 0.000000 0.000000 0.000000
								}
							}
						}
					}
				}
			}
		}
	}
}
MOTION
Frames: 15
Frame Time: 0.050000
0.000000 0.934991 0.000000 -0.668657 2.686581 -0.852012 6.690395 0.138537 8.992686 -2.717356 0.346049 -7.150691 2.929929 9.178600 10.093117 0.000000 0.000000 0.000000 -4.246694 -0.291999 5.312506 3.262985 -0.408168 -3.642321 -1.975929 -7.408969 7.775766 0.000000 0.000000 0.000000 3.298539 -0.330880 4.455798 -0.923809 0.846830 -20.410609 -1.908411 2.098350 26.162022 6.026991 -0.285324 -34.306937 0.000000 0.000000 0.000000 -38.512809 -8.107679 1.157665 -37.434995 -9.666296 -2.743123 -9.060926 -30.016313 3.649637 0.000000 0.000000 0.000000 41.525050 0.884009 -0.207246 38.807267 9.712630 -3.415836 -1.232234 22.268259 0.823711 0.000000 0.000000 0.000000 
-0.000155 0.934408 0.000505 -0.653450 2.371064 -0.141746 7.244522 0.067551 8.211387 -3.818106 0.393826 -6.971493 3.095058 9.402918 10.024529 0.000000 0.000000 0.000000 -5.095977 -0.165192 4.292128 4.745104 -0.525253 -3.225299 -1.853025 -7.132900 7.623438 0.000000 0.000000 0.000000 3.411680 -0.296463 3.798217 -1.308193 0.941780 -20.264100 -1.881381 2.349259 26.220829 7.177351 -0.723380 -35.236796 0.000000 0.000000 0.000000 -38.408011 -7.932370 1.014720 -37.098831 -9.847481 -2.678036 -9.532818 -31.146476 3.925510 0.000000 0.000000 0.000000 41.081708 -0.360253 -1.216744 40.051398 10.267871 -3.317210 -0.627502 22.509422 0.970155 0.000000 0.000000 0.000000 
-0.000345 0.934653 0.000723 -0.347145 2.838149 0.049057 7.096253 0.049919 7.521040 -4.017125 0.399765 -6.231932 2.893547 9.084373 9.941775 0.000000 0.000000 0.000000 -5.161275 -0.160842 4.185770 4.383381 -0.499109 -3.236558 -2.091085 -7.588372 7.598916 0.000000 0.000000 0.000000 4.087534 -0.306223 3.523511 -2.075412 1.163882 -20.306840 -2.245756 1.824169 26.513722 6.472854 -0.530671 -34.418317 0.000000 0.000000 0.000000 -36.522342 -7.474239 0.947587 -38.441983 -11.892709 -2.268065 -8.894925 -33.364190 4.070632 0.000000 0.000000 0.000000 40.932920 -0.408146 -1.357155 39.812074 9.817713 -3.420984 -0.443377 22.355753 0.988384 0.000000 0.000000 0.000000 
-0.000589 0.934023 0.001044 -0.278667 3.172077 -0.202009 7.221236 0.035493 7.603143 -4.244203 0.408912 -5.945255 2.762177 8.816055 9.643867 0.000000 0.000000 0.000000 -5.495685 -0.177832 4.613567 4.935169 -0.550567 -3.360055 -2.199568 -7.759795 7.460106 0.000000 0.000000 0.000000 4.838360 -0.335235 3.544566 -2.977001 1.417743 -20.672250 -2.218312 1.872872 26.949529 6.407512 -0.408832 -34.905553 0.000000 0.000000 0.000000 -36.597805 -8.331495 1.460119 -36.796936 -13.421640 -1.763519 -8.380840 -38.115742 4.500783 0.000000 0.000000 0.000000 42.112297 -1.540438 -2.199302 38.655762 9.683191 -3.509397 0.668408 23.478690 1.273643 0.000000 0.000000 0.000000 
-0.001119 0.933986 0.001388 -0.195528 4.161913 -0.629398 7.210338 0.021769 8.053176 -4.064018 0.387757 -6.191523 2.267665 8.050614 9.574333 0.000000 0.000000 0.000000 -5.260182 -0.262033 5.386920 4.596255 -0.533615 -3.585715 -2.585213 -8.512116 7.482966 0.000000 0.000000 0.000000 4.943225 -0.347306 3.704271 -2.638525 1.357845 -19.581633 -2.729261 1.486136 25.755241 5.608717 -0.000226 -34.508259 0.000000 0.000000 0.000000 -36.054942 -8.314992 1.249114 -35.304965 -15.737205 -0.972582 -8.507220 -46.691793 5.609830 0.000000 0.000000 0.000000 42.191491 -1.627501 -2.188025 38.233223 9.061924 -3.594253 0.872804 24.577703 1.376590 0.000000 0.000000 0.000000 
-0.001717 0.933792 0.001695 0.001045 4.941226 -0.857532 7.209246 0.009171 8.484820 -4.175445 0.379928 -6.709632 1.832522 7.412198 9.657771 0.000000 0.000000 0.000000 -5.520651 -0.299328 5.926439 4.899173 -0.569104 -3.822236 -2.863936 -9.054029 7.493021 0.000000 0.000000 0.000000 4.463909 -0.305114 3.470366 -2.472451 1.329152 -19.927353 -2.639471 1.330034 26.502781 4.958556 0.311364 -34.173988 0.000000 0.000000 0.000000 -35.132907 -8.661874 1.432654 -32.760438 -20.739911 0.202209 -6.802048 -55.368856 5.846511 0.000000 0.000000 0.000000 42.184667 -1.501890 -1.796485 37.758755 8.852288 -3.774126 1.469393 26.022026 1.619136 0.000000 0.000000 0.000000 
-0.002401 0.934131 0.001734 0.148173 5.941818 -0.964033 7.150689 -0.019704 8.089595 -4.036484 0.367362 -6.117565 1.384795 6.711822 9.537044 0.000000 0.000000 0.000000 -5.617159 -0.345928 6.386502 5.069020 -0.595557 -4.142406 -3.215796 -9.777547 7.750613 0.000000 0.000000 0.000000 4.164033 -0.289003 3.429652 -2.437963 1.346290 -19.638970 -2.481354 0.873847 25.907482 4.452535 0.487734 -33.092927 0.000000 0.000000 0.000000 -33.147191 -9.635070 2.139276 -29.911734 -26.601653 1.368283 -3.033176 -65.165903 4.550816 0.000000 0.000000 0.000000 41.371607 -1.414344 -1.543373 38.004268 8.232733 -3.959037 1.684583 26.804358 1.735108 0.000000 0.000000 0.000000 
-0.003132 0.934473 0.001486 0.030554 7.078771 -1.275006 7.370206 -0.073309 8.094649 -3.848704 0.348064 -5.973639 0.857644 5.900308 9.456051 0.000000 0.000000 0.000000 -5.287592 -0.424728 6.828289 5.018232 -0.605869 -4.087052 -3.639912 -10.632757 7.983018 0.000000 0.000000 0.000000 3.645007 -0.227157 2.912887 -2.487466 1.392026 -18.964725 -2.050359 0.083485 25.696279 3.788199 0.696289 -31.944858 0.000000 0.000000 0.000000 -29.534249 -11.331064 3.489688 -27.352947 -34.722350 2.626563 22.066159 -74.228549 -13.719846 0.000000 0.000000 0.000000 40.481909 -0.690334 -0.911160 38.621710 7.952266 -4.055341 1.456897 27.107741 1.704706 0.000000 0.000000 0.000000 
-0.003685 0.934865 0.000977 0.039850 8.022891 -1.433641 7.402961 -0.105593 7.905039 -3.657561 0.331691 -5.725015 0.419880 5.238509 9.422891 0.000000 0.000000 0.000000 -5.219813 -0.485123 7.284293 5.130006 -0.627873 -4.418224 -3.960024 -11.290666 8.332915 0.000000 0.000000 0.000000 2.856635 -0.209079 3.052152 -2.261247 1.353286 -18.897615 -1.453324 -0.435543 25.536146 2.544096 1.276441 -31.225684 0.000000 0.000000 0.000000 -24.701664 -13.468753 4.881400 -22.335366 -43.927741 2.979868 72.117044 -74.975116 -54.968018 0.000000 0.000000 0.000000 39.200230 -0.477166 -0.617848 39.187540 7.895931 -4.101213 2.367356 27.373448 1.932854 0.000000 0.000000 0.000000 
-0.004032 0.935684 0.000714 -0.166019 8.483526 -1.278525 7.678651 -0.153856 7.647412 -3.627252 0.324569 -5.838012 0.170610 4.950460 9.647609 0.000000 0.000000 0.000000 -4.770058 -0.516874 7.244288 4.874230 -0.609534 -4.652185 -4.126412 -11.646999 8.797366 0.000000 0.000000 0.000000 2.331220 -0.175950 2.770871 -1.881379 1.253253 -18.591561 -0.925953 -1.082227 25.011553 0.772712 2.093754 -30.721158 0.000000 0.000000 0.000000 -19.399258 -14.504389 5.510864 -14.264082 -53.508206 1.156442 93.183105 -66.820951 -66.281546 0.000000 0.000000 0.000000 38.139041 0.862472 0.273168 39.747769 7.823505 -4.038423 1.761461 26.938602 1.728360 0.000000 0.000000 0.000000 
-0.004037 0.936286 0.001018 -0.060966 8.364848 -1.186445 7.633402 -0.147054 7.486257 -3.772302 0.332480 -5.634029 0.177328 5.028799 9.845269 0.000000 0.000000 0.000000 -4.798965 -0.501817 7.122669 4.704154 -0.592312 -4.589713 -4.084884 -11.578372 8.920968 0.000000 0.000000 0.000000 1.854223 -0.149630 2.557090 -1.595388 1.167697 -19.067521 -0.650711 -1.057932 25.221330 -0.476022 2.707131 -30.212400 0.000000 0.000000 0.000000 -13.770224 -16.142183 6.150251 1.423795 -59.410660 -6.151303 93.781006 -57.531347 -57.922711 0.000000 0.000000 0.000000 36.745229 1.839908 1.033869 41.036677 7.540767 -4.174675 1.746715 27.324783 1.748034 0.000000 0.000000 0.000000 
-0.003757 0.937120 0.001879 -0.134377 8.183363 -1.047057 7.659408 -0.147020 7.516013 -3.742353 0.331697 -5.821193 0.201230 5.171753 10.153730 0.000000 0.000000 0.000000 -4.778440 -0.474308 6.820242 4.754992 -0.594048 -4.296543 -4.000599 -11.433988 9.138370 0.000000 0.000000 0.000000 1.396295 -0.132910 2.465015 -0.742528 0.922920 -19.474373 -0.639412 -1.454365 25.118984 -2.893871 3.872904 -29.630917 0.000000 0.000000 0.000000 -8.050855 -16.548426 6.079673 17.561565 -61.588416 -14.987537 93.046281 -50.241023 -50.353458 0.000000 0.000000 0.000000 34.957544 2.080367 0.980501 42.701281 7.923150 -4.036054 1.245558 27.131495 1.621726 0.000000 0.000000 0.000000 
-0.003282 0.937417 0.003073 -0.241996 8.095065 -0.991618 7.580291 -0.136968 7.662174 -3.452784 0.320543 -6.042150 0.238760 5.259677 10.239656 0.000000 0.000000 0.000000 -4.540288 -0.458502 6.470170 4.483798 -0.566080 -3.690350 -4.015553 -11.457916 9.080049 0.000000 0.000000 0.000000 1.388666 -0.127557 2.362770 -0.613455 0.892659 -20.387669 -0.267446 -1.772427 25.566777 -4.008395 4.405334 -29.281876 0.000000 0.000000 0.000000 -3.188940 -17.127434 5.978483 31.710243 -60.357869 -22.154595 91.508826 -44.222617 -43.733791 0.000000 0.000000 0.000000 33.274812 2.190574 0.947504 44.268560 7.779701 -4.140957 2.125102 27.544447 1.857509 0.000000 0.000000 0.000000 
-0.002798 0.937599 0.004165 -0.115551 8.269862 -0.950674 7.528482 -0.137506 7.537036 -3.603007 0.325529 -5.795178 0.144749 5.121598 10.243218 0.000000 0.000000 0.000000 -4.706330 -0.459637 6.566351 4.530667 -0.572305 -3.729604 -4.076962 -11.580129 9.156053 0.000000 0.000000 0.000000 0.980608 -0.106866 2.159024 -0.024956 0.735801 -20.544526 -0.318933 -1.923148 25.231857 -5.939252 5.417122 -28.826876 0.000000 0.000000 0.000000 2.117773 -16.588756 5.349811 39.065673 -59.378080 -25.726938 90.866695 -40.896300 -40.332162 0.000000 0.000000 0.000000 31.746675 1.382778 0.360289 46.386563 7.608553 -4.242973 1.570295 28.203639 1.822016 0.000000 0.000000 0.000000 
-0.002396 0.937774 0.005002 -0.186915 8.304627 -0.818924 7.500627 -0.139131 7.423098 -3.446111 0.318865 -5.779440 0.146469 5.128737 10.242661 0.000000 0.000000 0.000000 -4.741355 -0.440172 6.344568 4.710683 -0.589970 -3.501947 -4.089978 -11.605831 9.218651 0.000000 0.000000 0.000000 1.023364 -0.107103 2.135785 0.041791 0.733180 -21.533512 -0.064013 -2.119286 25.747804 -6.500939 5.699258 -28.868139 0.000000 0.000000 0.000000 5.164783 -16.134005 4.951228 43.531981 -57.481324 -26.980806 91.347101 -39.809072 -39.857854 0.000000 0.000000 0.000000 30.945979 1.135731 0.163415 46.601773 7.397542 -4.341213 2.376862 28.664282 2.048730 0.000000 0.000000 0.000000 
